<svg width="128" height="128" viewBox="0 0 128 128" fill="none" xmlns="http://www.w3.org/2000/svg">
  <defs>
    <linearGradient id="lehu-fill" x1="24" y1="18" x2="98" y2="106" gradientUnits="userSpaceOnUse">
      <stop stop-color="#C8695A"/>
      <stop offset="1" stop-color="#8F2625"/>
    </linearGradient>
  </defs>
  <rect x="18" y="18" width="92" height="92" rx="30" fill="url(#lehu-fill)"/>
  <path d="M54 37C54 31.4772 58.4772 27 64 27C69.5228 27 74 31.4772 74 37C74 42.5228 69.5228 47 64 47C58.4772 47 54 42.5228 54 37Z" fill="#FFF8F2"/>
  <path d="M58.5 53C58.5 50.5147 60.5147 48.5 63 48.5H65C67.4853 48.5 69.5 50.5147 69.5 53V83.5C69.5 85.9853 67.4853 88 65 88H63C60.5147 88 58.5 85.9853 58.5 83.5V53Z" fill="#FFF8F2"/>
  <path d="M31 74C43.6134 63.2358 54.1555 57.8537 62.6265 57.8537C71.0975 57.8537 82.2219 63.2358 96 74" stroke="#F9E0D4" stroke-width="7" stroke-linecap="round"/>
  <path d="M35 89C45.2315 80.2743 54.1776 75.9114 61.8384 75.9114C69.4992 75.9114 78.8864 80.2743 90 89" stroke="#F3C7B8" stroke-width="5.5" stroke-linecap="round" opacity="0.86"/>
</svg>
